<svg xmlns="http://www.w3.org/2000/svg" width="310" height="68" viewBox="0 0 310 68" fill="white">
  <g>
    <!-- Text -->
    <text x="40%" y="44" font-family="Arial, sans-serif" font-size="40" font-weight="bold" fill="white" text-anchor="middle">Linked</text>
    
    <!-- LinkedIn Logo -->
    <g transform="translate(200, 0)">
      <rect x="0" y="0" width="68" height="68" rx="8" fill="white"/>
      <path d="M20 24h8v24h-8V24zm4-12c2.2 0 4 1.8 4 4s-1.8 4-4 4-4-1.8-4-4 1.8-4 4-4zm12 12h8v3.4c1.2-2.2 4-4 7.6-4 8 0 9.4 5.2 9.4 11.8V48h-8v-10.4c0-2.8-.6-6.2-4-6.2s-4.6 3-4.6 6V48h-8V24z" fill="black"/>
    </g>
  </g>
</svg>
