<svg xmlns="http://www.w3.org/2000/svg" width="155" height="155" viewBox="0 0 225 225" fill="white">
<g transform="translate(0.000000,225.000000) scale(0.100000,-0.100000)"
fill="white" stroke="none">
<path d="M830 1183 l0 -183 30 0 c28 0 30 3 30 35 0 35 24 85 41 85 4 0 27
-27 51 -60 37 -53 46 -60 75 -60 18 0 33 3 33 6 0 3 -22 37 -50 75 -27 38 -50
72 -50 76 0 4 21 29 47 55 l47 48 -39 0 c-35 0 -47 -7 -97 -57 l-58 -57 0 106
0 106 -30 4 -30 5 0 -184z"/>
<path d="M440 1300 l0 -60 70 0 70 0 0 -60 0 -60 65 0 66 0 -3 118 -3 117
-132 3 -133 3 0 -61z"/>
<path d="M1650 1335 c0 -21 5 -25 30 -25 25 0 30 4 30 25 0 21 -5 25 -30 25
-25 0 -30 -4 -30 -25z"/>
<path d="M1182 1257 c-12 -7 -29 -23 -38 -35 -14 -21 -14 -23 9 -33 21 -9 28
-8 46 10 32 32 101 26 101 -9 0 -14 -14 -22 -57 -34 -95 -26 -108 -36 -111
-84 -3 -38 0 -43 30 -62 40 -24 85 -26 118 -3 17 12 25 13 28 5 2 -7 17 -12
34 -12 l30 0 -4 105 c-3 98 -5 106 -30 131 -21 21 -38 28 -80 31 -32 2 -62 -2
-76 -10z m111 -197 c-17 -17 -69 -20 -87 -7 -29 21 -13 44 41 59 l48 14 3 -29
c2 -16 0 -33 -5 -37z"/>
<path d="M1532 1254 c-12 -8 -22 -10 -22 -5 0 6 -16 11 -35 11 l-35 0 0 -130
0 -130 35 0 35 0 0 83 c0 93 15 127 56 127 20 0 24 5 24 30 0 35 -21 40 -58
14z"/>
<path d="M1882 1254 c-12 -8 -22 -10 -22 -5 0 6 -13 11 -30 11 l-30 0 0 -130
0 -130 30 0 30 0 0 78 c0 91 14 126 53 130 23 3 27 8 27 33 0 34 -22 39 -58
13z"/>
<path d="M1650 1130 l0 -130 30 0 30 0 0 130 0 130 -30 0 -30 0 0 -130z"/>
<path d="M372 1148 c2 -18 11 -24 36 -26 28 -3 32 -7 32 -33 0 -26 3 -29 30
-29 30 0 30 1 30 55 l0 55 -66 0 c-62 0 -65 -1 -62 -22z"/>
<path d="M1683 924 c-3 -8 -1 -20 5 -26 8 -8 9 -5 6 10 -4 14 0 22 13 25 17 4
17 5 0 6 -10 0 -20 -6 -24 -15z"/>
<path d="M1757 933 c-9 -9 -9 -43 1 -43 4 0 7 11 7 25 0 14 0 25 -1 25 0 0 -4
-3 -7 -7z"/>
<path d="M1786 927 c3 -10 9 -15 12 -12 3 3 0 11 -7 18 -10 9 -11 8 -5 -6z"/>
<path d="M1832 915 c0 -16 2 -22 5 -12 2 9 2 23 0 30 -3 6 -5 -1 -5 -18z"/>
<path d="M1867 919 c4 -13 8 -18 11 -10 2 7 -1 18 -6 23 -8 8 -9 4 -5 -13z"/>
</g>
</svg>
