<?xml version="1.0" standalone="no"?>
<!DOCTYPE svg PUBLIC "-//W3C//DTD SVG 20010904//EN"
 "http://www.w3.org/TR/2001/REC-SVG-20010904/DTD/svg10.dtd">
<svg version="1.0" xmlns="http://www.w3.org/2000/svg"
 width="2801.000000pt" height="800.000000pt" viewBox="0 0 2801.000000 800.000000"
 preserveAspectRatio="xMidYMid meet">

<g transform="translate(0.000000,800.000000) scale(0.100000,-0.100000)"
fill="#000000" stroke="none">
<path d="M3491 6276 c-743 -948 -1370 -1753 -1394 -1787 -91 -131 -163 -303
-191 -459 -9 -47 -19 -103 -23 -125 -5 -23 -10 152 -14 410 -6 493 -6 495 -74
650 -65 147 -210 317 -342 402 -369 236 -842 192 -1157 -106 -117 -112 -201
-250 -253 -418 l-28 -88 -3 -2378 -2 -2378 482 4 c531 4 533 5 708 70 140 53
240 118 355 232 134 132 210 251 265 415 51 152 50 114 51 1598 1 763 5 1374
9 1357 4 -16 17 -77 28 -135 35 -185 123 -382 226 -505 51 -62 2610 -2981
2642 -3014 23 -24 23 -24 126 -13 57 6 137 20 179 31 635 168 988 867 747
1481 -68 174 -62 167 -1079 1286 -585 644 -957 1060 -952 1067 4 7 435 559
958 1227 524 668 969 1242 990 1274 120 188 177 432 154 656 -50 495 -414 883
-896 955 -54 8 -112 15 -130 15 -31 0 -89 -72 -1382 -1724z"/>
<path d="M805 7961 c-196 -33 -362 -114 -502 -245 -122 -113 -208 -254 -260
-423 -25 -81 -27 -102 -27 -258 0 -156 2 -177 27 -258 79 -257 249 -460 482
-575 402 -200 891 -86 1161 271 56 74 126 215 155 312 30 101 38 321 15 436
-70 344 -337 626 -681 719 -89 24 -285 35 -370 21z"/>
<path d="M18736 6575 c-94 -24 -174 -72 -256 -155 -127 -126 -176 -253 -167
-425 6 -110 31 -187 93 -277 98 -145 246 -232 415 -245 170 -13 316 42 440
166 89 89 131 167 156 286 53 261 -107 538 -367 633 -84 31 -229 38 -314 17z"/>
<path d="M8831 6449 c-13 -5 -30 -17 -37 -27 -11 -14 -13 -456 -14 -2424 0
-1323 3 -2414 6 -2423 17 -42 43 -45 452 -45 379 0 390 1 416 21 l26 20 0 777
0 777 24 -25 c13 -14 296 -366 630 -782 333 -416 616 -764 628 -772 20 -14 79
-16 464 -16 425 0 442 1 467 20 27 21 41 61 32 89 -3 9 -309 388 -680 842
-371 453 -673 829 -671 835 2 6 282 352 622 770 339 417 633 778 652 801 44
55 47 106 7 140 l-26 23 -454 0 c-310 0 -461 -3 -477 -11 -13 -6 -286 -348
-608 -761 -322 -412 -591 -754 -597 -760 -10 -8 -13 280 -13 1436 0 925 -4
1454 -10 1466 -5 10 -24 23 -41 29 -40 14 -763 14 -798 0z"/>
<path d="M16095 6451 c-11 -5 -28 -18 -38 -28 -17 -19 -17 -106 -15 -1744 l3
-1724 23 -109 c147 -689 676 -1191 1363 -1291 66 -9 177 -15 291 -15 172 0
187 1 212 21 l26 20 0 394 c0 372 -1 394 -19 416 -19 23 -24 24 -223 30 -193
5 -207 7 -291 36 -123 43 -189 85 -287 183 -97 97 -139 163 -184 287 l-31 88
-5 1697 -5 1697 -23 23 -23 23 -377 2 c-207 1 -386 -2 -397 -6z"/>
<path d="M19820 6453 c-8 -3 -25 -15 -37 -26 l-23 -20 0 -2408 c0 -1324 3
-2415 6 -2424 17 -42 43 -45 453 -45 l390 0 28 24 28 24 3 175 3 175 102 -102
c239 -239 509 -355 895 -387 498 -40 948 125 1298 477 374 376 554 823 554
1375 0 484 -145 891 -446 1249 -247 295 -566 494 -913 571 -143 31 -337 43
-493 31 -385 -32 -658 -150 -895 -388 l-103 -103 0 858 c0 614 -3 867 -11 891
-21 58 -35 60 -451 59 -205 0 -380 -3 -388 -6z m2072 -2202 c176 -46 311 -124
439 -252 190 -190 279 -414 279 -705 0 -287 -80 -505 -254 -691 -182 -195
-387 -287 -667 -300 -78 -4 -158 -1 -210 7 -389 56 -675 312 -781 699 -19 65
-22 105 -22 276 -1 229 12 302 84 453 50 106 88 161 169 246 149 155 308 243
514 282 106 20 349 12 449 -15z"/>
<path d="M13365 5139 c-267 -28 -493 -109 -710 -253 -448 -299 -740 -767 -810
-1302 -19 -148 -19 -439 0 -586 50 -379 193 -698 448 -995 182 -214 471 -407
737 -493 323 -105 741 -100 1059 12 191 67 329 155 484 307 l107 106 0 -167
c0 -178 6 -208 47 -227 16 -7 149 -11 414 -11 l391 0 29 29 29 29 0 1696 c0
1221 -3 1702 -11 1719 -6 14 -22 30 -36 36 -16 7 -148 11 -408 11 -260 0 -392
-4 -408 -11 -41 -19 -47 -49 -47 -230 l0 -169 -52 57 c-234 261 -544 409 -929
443 -130 11 -219 11 -334 -1z m596 -887 c168 -45 295 -117 423 -241 166 -161
256 -339 287 -567 16 -119 6 -315 -21 -424 -30 -119 -115 -289 -187 -375 -205
-244 -475 -357 -812 -342 -277 13 -484 105 -662 295 -173 185 -252 402 -252
692 0 294 83 515 264 701 147 151 304 235 512 275 105 20 349 12 448 -14z"/>
<path d="M25349 5125 c-458 -72 -850 -322 -1109 -709 -74 -111 -164 -302 -199
-426 -67 -231 -64 -169 -68 -1336 l-4 -1062 25 -28 24 -29 390 0 390 0 26 24
25 24 3 1031 c4 1162 -3 1068 85 1246 39 80 60 109 132 180 99 98 165 140 288
183 84 30 97 31 290 36 194 6 203 7 225 29 23 23 23 23 26 395 2 204 0 382 -3
395 -3 12 -14 31 -25 42 -19 19 -34 20 -227 19 -119 -1 -245 -7 -294 -14z"/>
<path d="M27455 5124 c-164 -25 -376 -96 -515 -172 -499 -273 -811 -760 -850
-1327 -14 -200 -13 -1994 1 -2035 21 -58 37 -60 432 -60 365 0 408 4 427 40 6
12 10 375 10 987 0 609 4 999 10 1051 32 251 180 461 405 575 124 62 160 69
383 76 l204 6 24 28 24 28 0 385 0 385 -25 24 -24 25 -208 -1 c-123 -1 -245
-7 -298 -15z"/>
<path d="M18443 5026 l-28 -24 0 -1712 0 -1712 28 -24 28 -24 390 0 c410 0
436 3 453 45 8 22 8 3408 0 3430 -17 42 -43 45 -453 45 l-390 0 -28 -24z"/>
</g>
</svg>
